<svg width="163" height="40" viewBox="0 0 163 40" fill="none" xmlns="http://www.w3.org/2000/svg">
<g clip-path="url(#clip0_1_429)">
<mask id="mask0_1_429" style="mask-type:luminance" maskUnits="userSpaceOnUse" x="0" y="0" width="35" height="40">
<path d="M34.073 0H0V39.4818H34.073V0Z" fill="white"/>
</mask>
<g mask="url(#mask0_1_429)">
<path d="M13.5787 37.8283C12.5192 38.4842 11.5052 39.0333 10.5977 39.4824H20.8975V31.5244C20.3882 32.1534 19.8398 32.7652 19.2524 33.3598C17.6369 34.9942 15.7279 36.4983 13.5787 37.8283Z" fill="white"/>
<path d="M8.43278 14.4499C8.24849 14.069 8.06112 13.7046 7.87424 13.3545H1.40203C1.03123 13.3545 0.675607 13.5046 0.413408 13.7717C0.151208 14.0389 0.00390625 14.4012 0.00390625 14.779V24.631C0.00390625 25.0088 0.151208 25.3711 0.413408 25.6383C0.675607 25.9054 1.03123 26.0555 1.40203 26.0555H10.8243C10.8401 25.9141 10.8542 25.7723 10.8666 25.63C11.2201 21.4723 9.90736 17.4866 8.43278 14.4499Z" fill="white"/>
<path d="M25.1267 13.3545C25.4201 14.7621 25.5913 16.1405 25.6404 17.4898C25.7497 20.495 25.2515 23.3734 24.1602 26.055H32.6787C33.0495 26.055 33.4051 25.9049 33.6673 25.6378C33.9295 25.3707 34.0768 25.0083 34.0768 24.6305V14.779C34.0768 14.4012 33.9295 14.0389 33.6673 13.7717C33.4051 13.5046 33.0495 13.3545 32.6787 13.3545H25.1267Z" fill="white"/>
<path d="M20.8962 7.94788C20.8196 7.77237 20.7405 7.59606 20.6588 7.41895C20.6588 7.41895 18.4636 13.8303 11.3476 10.4355C10.845 10.1945 10.3549 9.92709 9.87943 9.63442C9.41457 9.35105 8.93154 9.02705 8.43034 8.66241V9.66472C9.19909 10.8502 9.89557 12.0827 10.5158 13.3552C12.17 16.7586 13.6498 21.2826 13.1851 26.0562C12.8484 29.5183 11.4888 33.1121 8.43034 36.5033C7.68044 37.3309 6.87629 38.1058 6.02344 38.8226C6.05411 38.8132 6.99823 38.5115 8.43034 37.8679C11.7243 36.3871 17.602 33.0946 20.8962 27.3713C21.1411 26.9467 21.3709 26.5084 21.5855 26.0562C23.2026 22.6398 23.8862 18.4423 22.7207 13.3552C22.3307 11.654 21.7344 9.85297 20.8962 7.94788Z" fill="white"/>
<path d="M11.1936 7.64475C11.5091 7.88194 11.8562 8.07203 12.2244 8.20926C12.6578 8.37115 13.1147 8.45802 13.5762 8.46627C15.8706 8.51051 17.7654 6.65061 17.8084 4.31299C17.8513 1.97537 16.027 0.045259 13.7327 0.000781002C11.4383 -0.043697 9.5435 1.81717 9.50079 4.15479C9.48785 4.83215 9.63487 5.50275 9.92948 6.11011C10.2241 6.71747 10.6577 7.2438 11.1936 7.64475Z" fill="white"/>
</g>
<path d="M48.3383 29.7403L54.5063 11.8603H58.7303L64.8983 29.7403H61.3463L60.0743 25.9003H53.1623L51.8663 29.7403H48.3383ZM54.0983 23.0203H59.1383L56.1623 14.1163H57.0743L54.0983 23.0203ZM66.1443 34.5403V16.6843H69.0963V19.2763L68.8083 18.6283C69.2563 17.9243 69.8643 17.3803 70.6323 16.9963C71.4003 16.5963 72.2883 16.3963 73.2963 16.3963C74.5283 16.3963 75.6403 16.7003 76.6323 17.3083C77.6243 17.9163 78.4083 18.7323 78.9843 19.7563C79.5763 20.7803 79.8723 21.9323 79.8723 23.2123C79.8723 24.4763 79.5843 25.6283 79.0083 26.6683C78.4323 27.7083 77.6483 28.5323 76.6563 29.1403C75.6643 29.7323 74.5363 30.0283 73.2723 30.0283C72.3283 30.0283 71.4563 29.8443 70.6563 29.4763C69.8723 29.0923 69.2483 28.5483 68.7843 27.8443L69.2883 27.2203V34.5403H66.1443ZM72.9123 27.1483C73.6323 27.1483 74.2723 26.9803 74.8323 26.6443C75.3923 26.3083 75.8243 25.8443 76.1283 25.2523C76.4483 24.6603 76.6083 23.9803 76.6083 23.2123C76.6083 22.4443 76.4483 21.7723 76.1283 21.1963C75.8243 20.6043 75.3923 20.1403 74.8323 19.8043C74.2723 19.4523 73.6323 19.2763 72.9123 19.2763C72.2243 19.2763 71.6003 19.4443 71.0403 19.7803C70.4963 20.1163 70.0643 20.5883 69.7443 21.1963C69.4403 21.7883 69.2883 22.4603 69.2883 23.2123C69.2883 23.9803 69.4403 24.6603 69.7443 25.2523C70.0643 25.8443 70.4963 26.3083 71.0403 26.6443C71.6003 26.9803 72.2243 27.1483 72.9123 27.1483ZM87.9813 30.0283C86.6373 30.0283 85.4613 29.7243 84.4533 29.1163C83.4453 28.5083 82.6613 27.6843 82.1013 26.6443C81.5413 25.6043 81.2613 24.4523 81.2613 23.1883C81.2613 21.8763 81.5413 20.7163 82.1013 19.7083C82.6773 18.6843 83.4533 17.8763 84.4293 17.2843C85.4213 16.6923 86.5253 16.3963 87.7413 16.3963C88.7653 16.3963 89.6613 16.5643 90.4293 16.9003C91.2133 17.2363 91.8773 17.7003 92.4213 18.2923C92.9653 18.8843 93.3813 19.5643 93.6693 20.3323C93.9573 21.0843 94.1013 21.9003 94.1013 22.7803C94.1013 23.0043 94.0853 23.2363 94.0533 23.4763C94.0373 23.7163 93.9973 23.9243 93.9333 24.1003H83.8533V21.7003H92.1573L90.6693 22.8283C90.8133 22.0923 90.7733 21.4363 90.5493 20.8603C90.3413 20.2843 89.9893 19.8283 89.4933 19.4923C89.0133 19.1563 88.4293 18.9883 87.7413 18.9883C87.0853 18.9883 86.5013 19.1563 85.9893 19.4923C85.4773 19.8123 85.0853 20.2923 84.8133 20.9323C84.5573 21.5563 84.4613 22.3163 84.5253 23.2123C84.4613 24.0123 84.5653 24.7243 84.8373 25.3483C85.1253 25.9563 85.5413 26.4283 86.0853 26.7643C86.6453 27.1003 87.2853 27.2683 88.0053 27.2683C88.7253 27.2683 89.3333 27.1163 89.8293 26.8123C90.3413 26.5083 90.7413 26.1003 91.0293 25.5883L93.5733 26.8363C93.3173 27.4603 92.9173 28.0123 92.3733 28.4923C91.8293 28.9723 91.1813 29.3483 90.4293 29.6203C89.6933 29.8923 88.8773 30.0283 87.9813 30.0283ZM94.5942 29.7403L99.1542 23.1883L94.5702 16.6843H98.2662L101.842 21.9643H100.186L103.762 16.6843H107.434L102.874 23.1883L107.41 29.7403H103.738L100.21 24.4843H101.818L98.2902 29.7403H94.5942ZM117.337 30.0283C116.057 30.0283 114.873 29.7963 113.785 29.3323C112.713 28.8683 111.769 28.2203 110.953 27.3883C110.153 26.5563 109.529 25.5803 109.081 24.4603C108.633 23.3403 108.409 22.1163 108.409 20.7883C108.409 19.4603 108.625 18.2363 109.057 17.1163C109.505 15.9803 110.129 15.0043 110.929 14.1883C111.745 13.3563 112.697 12.7163 113.785 12.2683C114.873 11.8043 116.057 11.5723 117.337 11.5723C118.617 11.5723 119.761 11.7883 120.769 12.2203C121.793 12.6523 122.657 13.2283 123.361 13.9483C124.065 14.6523 124.569 15.4283 124.873 16.2763L121.945 17.6443C121.609 16.7483 121.041 16.0123 120.241 15.4363C119.441 14.8443 118.473 14.5483 117.337 14.5483C116.217 14.5483 115.225 14.8123 114.361 15.3403C113.513 15.8683 112.849 16.5963 112.369 17.5243C111.905 18.4523 111.673 19.5403 111.673 20.7883C111.673 22.0363 111.905 23.1323 112.369 24.0763C112.849 25.0043 113.513 25.7323 114.361 26.2603C115.225 26.7883 116.217 27.0523 117.337 27.0523C118.473 27.0523 119.441 26.7643 120.241 26.1883C121.041 25.5963 121.609 24.8523 121.945 23.9563L124.873 25.3243C124.569 26.1723 124.065 26.9563 123.361 27.6763C122.657 28.3803 121.793 28.9483 120.769 29.3803C119.761 29.8123 118.617 30.0283 117.337 30.0283ZM130.504 30.0283C129.592 30.0283 128.8 29.8763 128.128 29.5723C127.456 29.2683 126.936 28.8363 126.568 28.2763C126.2 27.7003 126.016 27.0363 126.016 26.2843C126.016 25.5643 126.176 24.9243 126.496 24.3643C126.816 23.7883 127.312 23.3083 127.984 22.9243C128.656 22.5403 129.504 22.2683 130.528 22.1083L134.8 21.4123V23.8123L131.128 24.4363C130.504 24.5483 130.04 24.7483 129.736 25.0363C129.432 25.3243 129.28 25.7003 129.28 26.1643C129.28 26.6123 129.448 26.9723 129.784 27.2443C130.136 27.5003 130.568 27.6283 131.08 27.6283C131.736 27.6283 132.312 27.4923 132.808 27.2203C133.32 26.9323 133.712 26.5403 133.984 26.0443C134.272 25.5483 134.416 25.0043 134.416 24.4123V21.0523C134.416 20.4923 134.192 20.0283 133.744 19.6603C133.312 19.2763 132.736 19.0843 132.016 19.0843C131.344 19.0843 130.744 19.2683 130.216 19.6363C129.704 19.9883 129.328 20.4603 129.088 21.0523L126.52 19.8043C126.776 19.1163 127.176 18.5243 127.72 18.0283C128.28 17.5163 128.936 17.1163 129.688 16.8283C130.44 16.5403 131.256 16.3963 132.136 16.3963C133.208 16.3963 134.152 16.5963 134.968 16.9963C135.784 17.3803 136.416 17.9243 136.864 18.6283C137.328 19.3163 137.56 20.1243 137.56 21.0523V29.7403H134.584V27.5083L135.256 27.4603C134.92 28.0203 134.52 28.4923 134.056 28.8763C133.592 29.2443 133.064 29.5323 132.472 29.7403C131.88 29.9323 131.224 30.0283 130.504 30.0283ZM139.986 29.7403V16.6843H142.938V19.5883L142.698 19.1563C143.002 18.1803 143.474 17.5003 144.114 17.1163C144.77 16.7323 145.554 16.5403 146.466 16.5403H147.234V19.3243H146.106C145.21 19.3243 144.49 19.6043 143.946 20.1643C143.402 20.7083 143.13 21.4763 143.13 22.4683V29.7403H139.986ZM154.675 30.0283C153.331 30.0283 152.155 29.7243 151.147 29.1163C150.139 28.5083 149.355 27.6843 148.795 26.6443C148.235 25.6043 147.955 24.4523 147.955 23.1883C147.955 21.8763 148.235 20.7163 148.795 19.7083C149.371 18.6843 150.147 17.8763 151.123 17.2843C152.115 16.6923 153.219 16.3963 154.435 16.3963C155.459 16.3963 156.355 16.5643 157.123 16.9003C157.907 17.2363 158.571 17.7003 159.115 18.2923C159.659 18.8843 160.075 19.5643 160.363 20.3323C160.651 21.0843 160.795 21.9003 160.795 22.7803C160.795 23.0043 160.779 23.2363 160.747 23.4763C160.731 23.7163 160.691 23.9243 160.627 24.1003H150.547V21.7003H158.851L157.363 22.8283C157.507 22.0923 157.467 21.4363 157.243 20.8603C157.035 20.2843 156.683 19.8283 156.187 19.4923C155.707 19.1563 155.123 18.9883 154.435 18.9883C153.779 18.9883 153.195 19.1563 152.683 19.4923C152.171 19.8123 151.779 20.2923 151.507 20.9323C151.251 21.5563 151.155 22.3163 151.219 23.2123C151.155 24.0123 151.259 24.7243 151.531 25.3483C151.819 25.9563 152.235 26.4283 152.779 26.7643C153.339 27.1003 153.979 27.2683 154.699 27.2683C155.419 27.2683 156.027 27.1163 156.523 26.8123C157.035 26.5083 157.435 26.1003 157.723 25.5883L160.267 26.8363C160.011 27.4603 159.611 28.0123 159.067 28.4923C158.523 28.9723 157.875 29.3483 157.123 29.6203C156.387 29.8923 155.571 30.0283 154.675 30.0283Z" fill="white"/>
</g>
<defs>
<clipPath id="clip0_1_429">
<rect width="163" height="40" fill="white"/>
</clipPath>
</defs>
</svg>
