<svg width="20" height="19" viewBox="0 0 20 19" fill="none" xmlns="http://www.w3.org/2000/svg">
<g clip-path="url(#clip0_1_48)">
<path d="M9.87129 0.73235C11.453 1.5567 12.6536 3.01252 13.1375 4.76605C13.2845 5.29843 13.8352 5.6109 14.3675 5.46396C14.8999 5.31702 15.2124 4.76633 15.0654 4.23395C14.6057 2.56811 13.6517 1.10711 12.3709 0.0190001C12.5361 0.00641005 12.7029 0 12.8711 0C14.8782 0 16.5503 0.728 17.7018 2.10982C18.8331 3.46738 19.3711 5.34558 19.3711 7.5C19.3711 10.5971 18.8569 13.3652 17.9762 15.3976C17.1361 17.3362 15.7685 19 13.8711 19C12.7708 19 12.084 18.3477 11.6764 17.6396C11.3142 17.0106 11.098 16.2169 10.924 15.5779C10.717 14.8179 10.5584 14.2504 10.3326 13.8583C10.1465 13.5352 10.0208 13.5 9.87109 13.5C9.72139 13.5 9.59569 13.5352 9.40959 13.8583C9.18379 14.2504 9.02519 14.8179 8.81819 15.5779C8.64419 16.2169 8.42799 17.0106 8.06579 17.6396C7.65815 18.3477 6.97136 19 5.87109 19C3.97369 19 2.60608 17.3362 1.76603 15.3976C0.885344 13.3652 0.371094 10.5971 0.371094 7.5C0.371094 5.34558 0.909064 3.46738 2.04037 2.10982C3.19188 0.728 4.86399 0 6.87109 0C6.88057 0 6.89005 2.00815e-05 6.89952 6.00815e-05C7.96979 0.00466008 8.98109 0.2685 9.87129 0.73235Z" fill="#2A7AE2"/>
</g>
<defs>
<clipPath id="clip0_1_48">
<rect width="20" height="19" fill="white"/>
</clipPath>
</defs>
</svg>
