<svg width="24" height="24" viewBox="0 0 24 24" fill="none" xmlns="http://www.w3.org/2000/svg">
<g clip-path="url(#clip0_1_210)">
<path d="M5.32489 5.475C5.47489 6.2625 6.14989 6.3375 6.29989 5.5125C6.37489 5.1375 6.18739 4.875 5.81239 4.875C5.43739 4.875 5.24989 5.1 5.32489 5.475Z" fill="#2A7AE2"/>
<path d="M18.114 5.51243C18.939 5.73743 18.939 5.92493 17.9265 6.71243C17.514 7.08743 17.2515 7.53745 17.364 7.76245C17.7015 8.28745 19.1265 8.66245 19.1265 8.21245C19.1265 8.02495 18.864 7.87495 18.564 7.87495C18.264 7.87495 18.0015 7.68745 18.0015 7.49995C18.0015 7.27493 18.264 7.01243 18.564 6.89993C19.5015 6.52493 19.2765 5.24993 18.3015 5.28743C17.664 5.32493 17.589 5.36243 18.114 5.51243Z" fill="#2A7AE2"/>
<path d="M3.75 6.3375C3.75 6.5625 3.9375 6.825 4.125 6.9375C4.35 7.05 4.5 6.9 4.5 6.6C4.5 6.2625 4.35 6 4.125 6C3.9375 6 3.75 6.15 3.75 6.3375Z" fill="#2A7AE2"/>
<path d="M5.21308 8.47491C4.57558 9.26241 4.65058 11.2124 5.36308 12.6374C5.70058 13.2374 6.15058 14.5499 6.41308 15.5249C6.93808 17.5874 7.5381 17.5874 7.9506 15.5249C8.4381 13.1624 8.5881 12.8624 9.0006 13.4999C9.2256 13.7999 9.3756 14.5499 9.3756 15.1874C9.3756 16.4249 9.9381 17.5499 10.3506 17.1749C10.7631 16.7249 12.4131 11.8874 12.6381 10.4624C12.8631 8.73741 12.0006 7.79991 10.3506 7.94991C9.6756 8.02491 9.2256 8.24991 9.2631 8.51241C9.4131 9.18741 8.8131 9.11241 8.2506 8.43741C7.6506 7.68741 5.85058 7.72491 5.21308 8.47491Z" fill="#2A7AE2"/>
<path d="M15.5613 9.00017C15.4488 9.18767 15.4863 9.37517 15.6738 9.37517C15.8613 9.37517 16.1238 9.71267 16.2363 10.1627C16.4238 10.9127 17.2488 10.8377 17.2488 10.0877C17.2488 9.86267 17.0988 9.82517 16.8738 9.93767C16.6863 10.0502 16.4988 9.90017 16.4988 9.60017C16.4988 8.88767 15.8613 8.47517 15.5613 9.00017Z" fill="#2A7AE2"/>
<path d="M1.01321 11.925C0.488204 12.4875 0.375704 13.4625 0.375704 17.2875C0.375704 24.1875 -0.674296 23.625 12.0007 23.625C24.6757 23.625 23.6257 24.225 23.6257 17.175C23.6257 11.0625 23.6257 11.0625 18.9757 11.3625C14.0257 11.6625 12.9382 12.075 12.2257 13.875C11.8882 14.7 11.6257 15.45 11.6257 15.4875C11.6257 15.5625 12.1507 15.5625 12.7882 15.45C13.6132 15.3375 13.8757 15.1125 13.6882 14.7C13.4257 13.95 14.5507 12.75 15.5632 12.75C16.0132 12.75 16.6507 13.05 16.9507 13.3875C17.8132 14.4375 20.2507 19.575 20.0257 19.95C19.9132 20.1375 19.1257 19.7625 18.2632 19.125C16.4257 17.775 16.0132 18.225 17.3632 20.1375C18.5632 21.825 18.3007 22.3875 16.7632 21.4875C16.0882 21.075 14.7382 20.475 13.7632 20.1C12.7882 19.725 11.7007 19.0125 11.4007 18.5625C11.0632 18.075 10.4632 17.625 10.0132 17.55C9.37568 17.475 9.15067 17.1 9.00068 16.125L8.77567 14.8125L8.51318 16.2C8.06317 18.45 6.63821 18.4125 6.00071 16.125C5.77571 15.3375 5.28821 13.9125 4.83821 12.975C4.16321 11.4375 3.97571 11.25 2.85071 11.25C2.13821 11.25 1.35071 11.55 1.01321 11.925ZM19.5007 12.2625C19.5007 12.45 19.3507 12.7875 19.1632 13.0875C18.7507 13.725 17.9632 13.275 18.2632 12.5625C18.4507 12 19.5007 11.775 19.5007 12.2625Z" fill="#2A7AE2"/>
</g>
<defs>
<clipPath id="clip0_1_210">
<rect width="24" height="24" fill="white"/>
</clipPath>
</defs>
</svg>
