<svg width="72" height="84" viewBox="0 0 72 84" fill="none" xmlns="http://www.w3.org/2000/svg">
<g clip-path="url(#clip0_1_174)">
<path d="M12.5869 31.0494V61.2323H24.7939C31.5161 61.2323 37.0008 61.1988 37.0008 61.1487C37.0008 61.0985 36.6329 60.5969 36.1982 60.0116C34.1916 57.4364 32.8705 54.4265 32.2351 51.0487C31.9007 49.2428 31.9007 45.6642 32.2351 43.7413C33.8069 34.7784 41.2147 27.7551 50.2779 26.6181C53.3214 26.2335 57.6523 26.7184 60.0101 27.705C60.3445 27.8388 60.679 27.9559 60.7625 27.9559C60.8461 27.9559 60.9131 22.0698 60.9131 14.4111V0.866455H36.7499H12.5869V31.0494ZM44.8099 11.1002C45.5457 11.7859 45.1777 13.0734 44.1577 13.3242C43.9404 13.3744 38.3219 13.3911 31.6832 13.3744L19.5767 13.3242L19.1753 12.856C18.657 12.254 18.657 11.6687 19.1921 11.1503L19.5934 10.7323H32.001H44.4253L44.8099 11.1002ZM53.706 11.0166C54.2744 11.5016 54.3246 12.254 53.8397 12.8393L53.4217 13.3242L51.0638 13.3744L48.7061 13.4413L48.2045 12.9396C47.5857 12.321 47.5523 11.7022 48.1208 11.1503C48.5055 10.749 48.6058 10.7323 50.9301 10.7323C52.9869 10.7323 53.4049 10.7825 53.706 11.0166ZM44.8601 18.2906C45.2949 18.7588 45.2949 19.6618 44.8768 20.0799C44.6928 20.2638 44.2915 20.4645 43.9905 20.5146C43.6895 20.5648 38.071 20.5982 31.5161 20.5648L19.5767 20.5146L19.1753 20.0464C18.6903 19.4778 18.657 18.9428 19.1251 18.3574L19.4596 17.9228H31.9842H44.5089L44.8601 18.2906ZM53.8063 18.2571C54.2411 18.7421 54.2243 19.6786 53.7561 20.1467C53.4049 20.4978 53.2377 20.5146 50.9468 20.5146H48.5055L48.1042 20.0464C47.6192 19.4778 47.5857 18.9428 48.0539 18.3574L48.3883 17.9228H50.9468C53.3046 17.9228 53.522 17.9561 53.8063 18.2571Z" fill="#30465C"/>
<path d="M0.881592 40.7481V70.931H22.0347H43.1878V68.4227V65.9312L42.6527 65.6469C42.3517 65.4964 41.6327 65.0449 41.0474 64.6435L39.994 63.9078H26.0146H12.0518L11.3829 63.54C11.0318 63.3393 10.5635 62.9045 10.3629 62.5701L9.99496 61.9848L9.94485 36.2667L9.91138 10.5652H5.39649H0.881592V40.7481Z" fill="#30465C"/>
<path d="M50.1442 29.2937C45.9136 29.9626 41.8001 32.2534 39.0075 35.4974C37.1848 37.6211 36.0143 39.8785 35.128 42.922C34.7936 44.1092 34.7434 44.6276 34.7434 47.3533C34.7434 50.7477 34.9609 51.9183 36.0143 54.4767C38.0878 59.4598 42.7699 63.5568 48.0373 64.9948C50.0105 65.5466 53.6558 65.7472 55.6792 65.4129C64.9264 63.9413 71.5984 55.6807 71.0633 46.3834C70.595 38.2064 64.7759 31.3504 56.7829 29.5278C55.3949 29.2268 51.4987 29.093 50.1442 29.2937ZM54.0572 41.8685L55.1274 45.1794L58.8061 45.2129L62.485 45.263L59.5252 47.4034C57.9032 48.5906 56.5654 49.5605 56.5654 49.5772C56.5654 49.594 57.0504 51.1157 57.6524 52.9551C58.2377 54.7777 58.6891 56.3162 58.6557 56.3496C58.6222 56.383 57.3346 55.5135 55.813 54.3931C54.2913 53.2895 52.9702 52.3698 52.8699 52.3698C52.7194 52.3698 48.7062 55.1958 47.0842 56.4165C46.8668 56.5837 47.2347 55.2961 48.4386 51.7678L49.1743 49.5605L47.4687 48.3398C46.5491 47.6709 45.2113 46.7011 44.5257 46.1827L43.2716 45.263L46.9504 45.1794L50.6125 45.0957L51.6994 41.7013C52.3014 39.8452 52.8365 38.3736 52.8867 38.4405C52.9535 38.5241 53.4719 40.0625 54.0572 41.8685Z" fill="#30465C"/>
<path d="M45.8635 75.0446C45.8635 81.2149 45.9137 82.8035 46.081 82.7031C46.1813 82.6363 47.6863 81.5828 49.4086 80.3454C51.1309 79.1247 52.6359 78.0879 52.753 78.0377C52.87 78.0043 54.4753 79.0411 56.3147 80.3621L59.6591 82.7533L59.7093 75.0612C59.726 70.8306 59.726 67.3358 59.6925 67.319C59.6591 67.2857 58.8899 67.4528 57.9702 67.7036C56.4317 68.1217 56.0639 68.1552 52.8867 68.1552C49.6762 68.1552 49.3584 68.1217 47.7866 67.7036C46.8669 67.4528 46.0642 67.2522 45.9973 67.2522C45.9137 67.2522 45.8635 70.7638 45.8635 75.0446Z" fill="#30465C"/>
</g>
<defs>
<clipPath id="clip0_1_174">
<rect width="71.9951" height="83.67" fill="white"/>
</clipPath>
</defs>
</svg>
