<svg width="154" height="32" viewBox="0 0 154 32" fill="none" xmlns="http://www.w3.org/2000/svg">
<rect x="13.1008" y="0.515625" width="5.0281" height="31.4918" rx="2.51405" fill="#2A7AE2" fill-opacity="0.84"/>
<rect width="5.04945" height="31.3597" rx="2.52472" transform="matrix(0.704117 0.710084 -0.704117 0.710084 24.8799 3.33594)" fill="#2A7AE2" fill-opacity="0.84"/>
<rect x="31.2271" y="13.7266" width="5.07071" height="31.2271" rx="2.53535" transform="rotate(90 31.2271 13.7266)" fill="#2A7AE2" fill-opacity="0.84"/>
<rect width="5.04945" height="31.3597" rx="2.52472" transform="matrix(-0.704117 0.710084 -0.704117 -0.710084 28.4375 25.6016)" fill="#2A7AE2" fill-opacity="0.84"/>
<path d="M39.4911 26.2578L45.6591 8.37781H49.8831L56.0511 26.2578H52.4991L51.2271 22.4178H44.3151L43.0191 26.2578H39.4911ZM45.2511 19.5378H50.2911L47.3151 10.6338H48.2271L45.2511 19.5378ZM57.297 31.0578V13.2018H60.249V15.7938L59.961 15.1458C60.409 14.4418 61.017 13.8978 61.785 13.5138C62.553 13.1138 63.441 12.9138 64.449 12.9138C65.681 12.9138 66.793 13.2178 67.785 13.8258C68.777 14.4338 69.561 15.2498 70.137 16.2738C70.729 17.2978 71.025 18.4498 71.025 19.7298C71.025 20.9938 70.737 22.1458 70.161 23.1858C69.585 24.2258 68.801 25.0498 67.809 25.6578C66.817 26.2498 65.689 26.5458 64.425 26.5458C63.481 26.5458 62.609 26.3618 61.809 25.9938C61.025 25.6098 60.401 25.0658 59.937 24.3618L60.441 23.7378V31.0578H57.297ZM64.065 23.6658C64.785 23.6658 65.425 23.4978 65.985 23.1618C66.545 22.8258 66.977 22.3618 67.281 21.7698C67.601 21.1778 67.761 20.4978 67.761 19.7298C67.761 18.9618 67.601 18.2898 67.281 17.7138C66.977 17.1218 66.545 16.6578 65.985 16.3218C65.425 15.9698 64.785 15.7938 64.065 15.7938C63.377 15.7938 62.753 15.9618 62.193 16.2978C61.649 16.6338 61.217 17.1058 60.897 17.7138C60.593 18.3058 60.441 18.9778 60.441 19.7298C60.441 20.4978 60.593 21.1778 60.897 21.7698C61.217 22.3618 61.649 22.8258 62.193 23.1618C62.753 23.4978 63.377 23.6658 64.065 23.6658ZM79.134 26.5458C77.79 26.5458 76.614 26.2418 75.606 25.6338C74.598 25.0258 73.814 24.2018 73.254 23.1618C72.694 22.1218 72.414 20.9698 72.414 19.7058C72.414 18.3938 72.694 17.2338 73.254 16.2258C73.83 15.2018 74.606 14.3938 75.582 13.8018C76.574 13.2098 77.678 12.9138 78.894 12.9138C79.918 12.9138 80.814 13.0818 81.582 13.4178C82.366 13.7538 83.03 14.2178 83.574 14.8098C84.118 15.4018 84.534 16.0818 84.822 16.8498C85.11 17.6018 85.254 18.4178 85.254 19.2978C85.254 19.5218 85.238 19.7538 85.206 19.9938C85.19 20.2338 85.15 20.4418 85.086 20.6178H75.006V18.2178H83.31L81.822 19.3458C81.966 18.6098 81.926 17.9538 81.702 17.3778C81.494 16.8018 81.142 16.3458 80.646 16.0098C80.166 15.6738 79.582 15.5058 78.894 15.5058C78.238 15.5058 77.654 15.6738 77.142 16.0098C76.63 16.3298 76.238 16.8098 75.966 17.4498C75.71 18.0738 75.614 18.8338 75.678 19.7298C75.614 20.5298 75.718 21.2418 75.99 21.8658C76.278 22.4738 76.694 22.9458 77.238 23.2818C77.798 23.6178 78.438 23.7858 79.158 23.7858C79.878 23.7858 80.486 23.6338 80.982 23.3298C81.494 23.0258 81.894 22.6178 82.182 22.1058L84.726 23.3538C84.47 23.9778 84.07 24.5298 83.526 25.0098C82.982 25.4898 82.334 25.8658 81.582 26.1378C80.846 26.4098 80.03 26.5458 79.134 26.5458ZM85.7469 26.2578L90.3069 19.7058L85.7229 13.2018H89.4189L92.9949 18.4818H91.3389L94.9149 13.2018H98.5869L94.0269 19.7058L98.5629 26.2578H94.8909L91.3629 21.0018H92.9709L89.4429 26.2578H85.7469ZM108.49 26.5458C107.21 26.5458 106.026 26.3138 104.938 25.8498C103.866 25.3858 102.922 24.7378 102.106 23.9058C101.306 23.0738 100.682 22.0978 100.234 20.9778C99.7857 19.8578 99.5617 18.6338 99.5617 17.3058C99.5617 15.9778 99.7777 14.7538 100.21 13.6338C100.658 12.4978 101.282 11.5218 102.082 10.7058C102.898 9.87381 103.85 9.23381 104.938 8.78581C106.026 8.32181 107.21 8.08981 108.49 8.08981C109.77 8.08981 110.914 8.30581 111.922 8.73781C112.946 9.16981 113.81 9.74581 114.514 10.4658C115.218 11.1698 115.722 11.9458 116.026 12.7938L113.098 14.1618C112.762 13.2658 112.194 12.5298 111.394 11.9538C110.594 11.3618 109.626 11.0658 108.49 11.0658C107.37 11.0658 106.378 11.3298 105.514 11.8578C104.666 12.3858 104.002 13.1138 103.522 14.0418C103.058 14.9698 102.826 16.0578 102.826 17.3058C102.826 18.5538 103.058 19.6498 103.522 20.5938C104.002 21.5218 104.666 22.2498 105.514 22.7778C106.378 23.3058 107.37 23.5698 108.49 23.5698C109.626 23.5698 110.594 23.2818 111.394 22.7058C112.194 22.1138 112.762 21.3698 113.098 20.4738L116.026 21.8418C115.722 22.6898 115.218 23.4738 114.514 24.1938C113.81 24.8978 112.946 25.4658 111.922 25.8978C110.914 26.3298 109.77 26.5458 108.49 26.5458ZM121.657 26.5458C120.745 26.5458 119.953 26.3938 119.281 26.0898C118.609 25.7858 118.089 25.3538 117.721 24.7938C117.353 24.2178 117.169 23.5538 117.169 22.8018C117.169 22.0818 117.329 21.4418 117.649 20.8818C117.969 20.3058 118.465 19.8258 119.137 19.4418C119.809 19.0578 120.657 18.7858 121.681 18.6258L125.953 17.9298V20.3298L122.281 20.9538C121.657 21.0658 121.193 21.2658 120.889 21.5538C120.585 21.8418 120.433 22.2178 120.433 22.6818C120.433 23.1298 120.601 23.4898 120.937 23.7618C121.289 24.0178 121.721 24.1458 122.233 24.1458C122.889 24.1458 123.465 24.0098 123.961 23.7378C124.473 23.4498 124.865 23.0578 125.137 22.5618C125.425 22.0658 125.569 21.5218 125.569 20.9298V17.5698C125.569 17.0098 125.345 16.5458 124.897 16.1778C124.465 15.7938 123.889 15.6018 123.169 15.6018C122.497 15.6018 121.897 15.7858 121.369 16.1538C120.857 16.5058 120.481 16.9778 120.241 17.5698L117.673 16.3218C117.929 15.6338 118.329 15.0418 118.873 14.5458C119.433 14.0338 120.089 13.6338 120.841 13.3458C121.593 13.0578 122.409 12.9138 123.289 12.9138C124.361 12.9138 125.305 13.1138 126.121 13.5138C126.937 13.8978 127.569 14.4418 128.017 15.1458C128.481 15.8338 128.713 16.6418 128.713 17.5698V26.2578H125.737V24.0258L126.409 23.9778C126.073 24.5378 125.673 25.0098 125.209 25.3938C124.745 25.7618 124.217 26.0498 123.625 26.2578C123.033 26.4498 122.377 26.5458 121.657 26.5458ZM131.139 26.2578V13.2018H134.091V16.1058L133.851 15.6738C134.155 14.6978 134.627 14.0178 135.267 13.6338C135.923 13.2498 136.707 13.0578 137.619 13.0578H138.387V15.8418H137.259C136.363 15.8418 135.643 16.1218 135.099 16.6818C134.555 17.2258 134.283 17.9938 134.283 18.9858V26.2578H131.139ZM145.828 26.5458C144.484 26.5458 143.308 26.2418 142.3 25.6338C141.292 25.0258 140.508 24.2018 139.948 23.1618C139.388 22.1218 139.108 20.9698 139.108 19.7058C139.108 18.3938 139.388 17.2338 139.948 16.2258C140.524 15.2018 141.3 14.3938 142.276 13.8018C143.268 13.2098 144.372 12.9138 145.588 12.9138C146.612 12.9138 147.508 13.0818 148.276 13.4178C149.06 13.7538 149.724 14.2178 150.268 14.8098C150.812 15.4018 151.228 16.0818 151.516 16.8498C151.804 17.6018 151.948 18.4178 151.948 19.2978C151.948 19.5218 151.932 19.7538 151.9 19.9938C151.884 20.2338 151.844 20.4418 151.78 20.6178H141.7V18.2178H150.004L148.516 19.3458C148.66 18.6098 148.62 17.9538 148.396 17.3778C148.188 16.8018 147.836 16.3458 147.34 16.0098C146.86 15.6738 146.276 15.5058 145.588 15.5058C144.932 15.5058 144.348 15.6738 143.836 16.0098C143.324 16.3298 142.932 16.8098 142.66 17.4498C142.404 18.0738 142.308 18.8338 142.372 19.7298C142.308 20.5298 142.412 21.2418 142.684 21.8658C142.972 22.4738 143.388 22.9458 143.932 23.2818C144.492 23.6178 145.132 23.7858 145.852 23.7858C146.572 23.7858 147.18 23.6338 147.676 23.3298C148.188 23.0258 148.588 22.6178 148.876 22.1058L151.42 23.3538C151.164 23.9778 150.764 24.5298 150.22 25.0098C149.676 25.4898 149.028 25.8658 148.276 26.1378C147.54 26.4098 146.724 26.5458 145.828 26.5458Z" fill="#13195C"/>
</svg>
