<?xml version="1.0" encoding="utf-8"?>
<!-- Generator: Adobe Illustrator 22.1.0, SVG Export Plug-In . SVG Version: 6.00 Build 0)  -->
<svg version="1.1" id="Layer_1" xmlns="http://www.w3.org/2000/svg" xmlns:xlink="http://www.w3.org/1999/xlink" x="0px" y="0px"
	 viewBox="0 0 350 202.6" style="enable-background:new 0 0 350 202.6;" xml:space="preserve">
<style type="text/css">
	.st0{fill-rule:evenodd;clip-rule:evenodd;fill:#E32622;}
	.st1{fill:#031D7C;}
	.st2{fill:#2E7D32;}
</style>
<g>
	<polygon class="st0" points="134.8,32.4 152.6,32.4 152.6,48.9 169.2,48.9 169.2,66.7 152.6,66.7 152.6,83.3 134.8,83.3 
		134.8,66.7 118.3,66.7 118.3,48.9 134.8,48.9 	"/>
	<g>
		<path class="st1" d="M28.7,202h-8V185H8V202H0v-39.3h8v15.5h12.7v-15.5h8V202z"/>
		<path class="st1" d="M85.3,182.4c0,3.1-0.3,5.8-1,8.3c-0.7,2.5-1.7,4.6-3,6.4c-1.4,1.8-3.1,3.1-5.1,4.1c-2.1,0.9-4.5,1.4-7.3,1.4
			c-2.8,0-5.3-0.5-7.3-1.4c-2.1-0.9-3.8-2.3-5.1-4.1c-1.3-1.8-2.3-3.9-3-6.4c-0.7-2.5-1-5.3-1-8.4c0-4.2,0.6-7.9,1.8-10.9
			c1.2-3,3-5.3,5.5-6.9c2.4-1.6,5.5-2.4,9.2-2.4c3.7,0,6.8,0.8,9.2,2.5c2.4,1.6,4.2,4,5.4,7C84.7,174.6,85.3,178.2,85.3,182.4z
			 M60.8,182.4c0,2.9,0.3,5.3,0.9,7.3c0.6,2,1.5,3.5,2.7,4.6c1.2,1,2.7,1.6,4.6,1.6c1.9,0,3.4-0.5,4.6-1.5c1.2-1,2.1-2.5,2.6-4.5
			c0.6-2,0.9-4.4,0.9-7.3c0-4.4-0.6-7.7-1.9-10c-1.3-2.3-3.3-3.5-6.1-3.5c-1.9,0-3.4,0.5-4.6,1.6c-1.2,1-2.1,2.6-2.7,4.6
			C61.1,177,60.8,179.5,60.8,182.4z"/>
		<path class="st1" d="M130.2,190.8c0,2.3-0.5,4.4-1.6,6.2c-1,1.8-2.5,3.1-4.5,4.1c-2,1-4.3,1.5-7,1.5c-1.2,0-2.4-0.1-3.6-0.2
			c-1.2-0.2-2.3-0.4-3.4-0.7c-1.1-0.3-2.2-0.8-3.2-1.3v-7.7c1.7,0.9,3.4,1.6,5.2,2.2c1.8,0.6,3.5,0.9,5.2,0.9c1.2,0,2.1-0.2,2.9-0.6
			c0.7-0.4,1.3-0.9,1.6-1.5c0.3-0.6,0.5-1.4,0.5-2.2c0-0.9-0.2-1.7-0.7-2.4c-0.5-0.7-1.2-1.3-2.2-2c-1-0.6-2.2-1.3-3.6-2.1
			c-1-0.6-2.1-1.2-3.1-1.8c-1-0.7-1.9-1.4-2.7-2.3c-0.8-0.9-1.5-1.9-1.9-3.1c-0.5-1.2-0.7-2.7-0.7-4.3c0-2.3,0.5-4.3,1.5-5.9
			c1-1.7,2.4-3,4.3-3.9s4-1.3,6.6-1.3c1.8,0,3.6,0.2,5.3,0.7c1.7,0.4,3.4,1.1,5.2,1.9l-2.4,6.6c-1.6-0.8-3-1.3-4.3-1.7
			c-1.3-0.4-2.6-0.6-3.8-0.6c-1,0-1.8,0.2-2.4,0.5c-0.7,0.3-1.2,0.8-1.5,1.4c-0.3,0.6-0.5,1.3-0.5,2c0,0.9,0.2,1.7,0.6,2.4
			c0.4,0.6,1.1,1.3,2.1,1.9c1,0.6,2.2,1.3,3.8,2.1c1.8,0.9,3.4,1.9,4.6,3c1.3,1,2.2,2.2,2.9,3.6
			C129.9,187.3,130.2,188.9,130.2,190.8z"/>
		<path class="st1" d="M164.4,162.8c4.6,0,7.9,1.1,10.1,3.2s3.2,5.1,3.2,9c0,1.8-0.3,3.6-0.8,5.2c-0.5,1.6-1.3,3-2.4,4.2
			c-1.1,1.2-2.5,2.1-4.3,2.8c-1.8,0.7-3.9,1-6.4,1H161V202h-8v-39.3H164.4z M163.9,169.4H161v12.1h2.1c1.4,0,2.6-0.2,3.6-0.6
			s1.7-1.1,2.3-2c0.5-0.9,0.8-2.1,0.8-3.7c0-2-0.5-3.4-1.4-4.4C167.3,169.8,165.8,169.4,163.9,169.4z"/>
		<path class="st1" d="M200.7,202v-39.3h8V202H200.7z"/>
		<path class="st1" d="M247.5,202h-7.9v-32.6h-9.1v-6.7h26v6.7h-9V202z"/>
		<path class="st1" d="M299.3,202l-2.5-9.4h-11.6l-2.5,9.4h-8.6l11.8-39.4h10l11.9,39.4H299.3z M295.2,185.9l-2.5-9.8
			c-0.2-0.7-0.4-1.5-0.6-2.4s-0.4-1.8-0.6-2.6c-0.2-0.9-0.4-1.7-0.5-2.4c-0.1,0.7-0.3,1.5-0.5,2.4c-0.2,0.9-0.4,1.8-0.6,2.7
			c-0.2,0.9-0.4,1.7-0.5,2.3l-2.5,9.8H295.2z"/>
		<path class="st1" d="M328.7,202v-39.3h8v32.6H350v6.7H328.7z"/>
	</g>
	<g>
		<g>
			<path class="st1" d="M92.3,49.9L49.8,91.9l42.5,61.2H68.9L35.8,105l-16.3,15.8v32.4H0V49.9h19.6v48.8l48.3-48.8H92.3z"/>
			<path class="st1" d="M101,153.2v-20.8h21.3v20.8H101z"/>
			<path class="st1" d="M228.7,153.2v-20.8H250v20.8H228.7z"/>
			<path class="st1" d="M331.1,49.9H350v103.3h-21.8l-28.7-46c-8.4-13.3-14.6-23.6-18.4-31.1c0.4,12.2,0.6,28.9,0.6,50.1v27h-18.9
				V49.9h21.8l28.9,46c8.4,13.6,14.5,24,18.3,31.1c-0.4-16.3-0.6-32.9-0.6-50.1V49.9z"/>
			<path class="st1" d="M215.8,141.1l-0.9-15.4c-0.2-5.8-1.4-10.5-3.6-14.1c-2.2-3.6-6-6.2-11.4-8c5.6-1.9,9.9-5,12.8-9.3
				c2.9-4.3,4.4-9.4,4.4-15.4c0-8.9-3.2-16-9.5-21.3c-6.3-5.3-15.3-7.9-26.9-7.9h-6V66h4.1c5.7,0,10.2,1.3,13.3,3.8
				c3.2,2.6,4.8,6.4,4.8,11.4c0,5.2-1.5,9.2-4.6,12c-3.1,2.8-7.4,4.1-12.8,4.1h-26.1v-9h-19.6v64.9h19.6v-40.5h25.5
				c5.5,0,9.6,1.2,12.2,3.6c2.6,2.4,4.1,6.8,4.4,13.2l0.4,11.3c0.2,5.5,1.1,9.6,2.8,12.3H219C217,150.3,216,146.3,215.8,141.1z"/>
		</g>
	</g>
	<path class="st2" d="M102.8,20.9c-0.6,0-1.1,0.3-1.2,0.7l-2.7,9.7L95,4.4c-0.1-0.4-0.5-0.7-1.2-0.7c-0.6,0-1.2,0.2-1.3,0.6
		l-7.5,21.1l-2.9-13c-0.1-0.4-0.6-0.7-1.2-0.7c-0.6,0-1.1,0.2-1.3,0.6l-6,15.1l-2.1-10.3c-0.1-0.4-0.6-0.7-1.2-0.7
		c-0.6,0-1.1,0.2-1.3,0.6l-4.8,12.3L60.7,0.7c0-0.4-0.6-0.7-1.2-0.7c0,0,0,0,0,0c-0.6,0-1.1,0.3-1.2,0.7l-4.9,23.5H0v2.4h54.3
		c0.6,0,1.1-0.3,1.2-0.7l3.5-17.4L62.6,34c0,0.4,0.5,0.7,1.1,0.7c0.6,0,1.2-0.2,1.3-0.6l5.1-9.3l2.1,6.6c0.1,0.4,0.6,0.7,1.2,0.7
		c0.6,0,1.1-0.2,1.3-0.6l6-15.2l3,13.3c0.1,0.4,0.6,0.7,1.2,0.7c0.6,0,1.1-0.2,1.3-0.6l7.2-20.4l4.2,28.6c0.1,0.4,0.6,0.7,1.2,0.7
		c0,0,0,0,0,0c0.6,0,1.1-0.3,1.2-0.7l4-14.6H350v-2.4H102.8z"/>
</g>
</svg>
